<mxfile host="app.diagrams.net" modified="2020-10-26T02:29:11.937Z" agent="5.0 (Windows NT 10.0; Win64; x64) AppleWebKit/537.36 (KHTML, like Gecko) Chrome/86.0.4240.75 Safari/537.36" etag="PWqCFya2yOt0tFuelkz8" version="13.8.2" type="github">
  <diagram id="C5RBs43oDa-KdzZeNtuy" name="Page-1">
    <mxGraphModel dx="918" dy="794" grid="1" gridSize="10" guides="1" tooltips="1" connect="1" arrows="1" fold="1" page="1" pageScale="1" pageWidth="827" pageHeight="1169" math="0" shadow="0">
      <root>
        <mxCell id="WIyWlLk6GJQsqaUBKTNV-0" />
        <mxCell id="WIyWlLk6GJQsqaUBKTNV-1" parent="WIyWlLk6GJQsqaUBKTNV-0" />
        <mxCell id="aFqCOCNEl6wOj5MGJ-eA-0" value="0.&lt;br&gt;앱 실행&amp;nbsp;" style="rounded=0;whiteSpace=wrap;html=1;fillColor=#ffe6cc;strokeColor=#d79b00;" vertex="1" parent="WIyWlLk6GJQsqaUBKTNV-1">
          <mxGeometry x="376" y="30" width="76" height="40" as="geometry" />
        </mxCell>
        <mxCell id="aFqCOCNEl6wOj5MGJ-eA-14" value="" style="edgeStyle=none;rounded=0;orthogonalLoop=1;jettySize=auto;html=1;" edge="1" parent="WIyWlLk6GJQsqaUBKTNV-1" source="aFqCOCNEl6wOj5MGJ-eA-7" target="aFqCOCNEl6wOj5MGJ-eA-13">
          <mxGeometry relative="1" as="geometry" />
        </mxCell>
        <mxCell id="aFqCOCNEl6wOj5MGJ-eA-16" value="" style="edgeStyle=none;rounded=0;orthogonalLoop=1;jettySize=auto;html=1;" edge="1" parent="WIyWlLk6GJQsqaUBKTNV-1" source="aFqCOCNEl6wOj5MGJ-eA-7" target="aFqCOCNEl6wOj5MGJ-eA-15">
          <mxGeometry relative="1" as="geometry" />
        </mxCell>
        <mxCell id="aFqCOCNEl6wOj5MGJ-eA-7" value="회원가입이 &lt;br&gt;되어있는가?" style="rhombus;whiteSpace=wrap;html=1;" vertex="1" parent="WIyWlLk6GJQsqaUBKTNV-1">
          <mxGeometry x="355" y="90" width="118" height="60" as="geometry" />
        </mxCell>
        <mxCell id="aFqCOCNEl6wOj5MGJ-eA-13" value="01. 01&lt;br&gt;회원가입 페이지" style="whiteSpace=wrap;html=1;" vertex="1" parent="WIyWlLk6GJQsqaUBKTNV-1">
          <mxGeometry x="156" y="100" width="120" height="40" as="geometry" />
        </mxCell>
        <mxCell id="aFqCOCNEl6wOj5MGJ-eA-15" value="01.02&lt;br&gt;로그인 페이지" style="whiteSpace=wrap;html=1;" vertex="1" parent="WIyWlLk6GJQsqaUBKTNV-1">
          <mxGeometry x="552" y="100" width="120" height="40" as="geometry" />
        </mxCell>
        <mxCell id="aFqCOCNEl6wOj5MGJ-eA-17" value="" style="endArrow=classic;html=1;" edge="1" parent="WIyWlLk6GJQsqaUBKTNV-1" target="aFqCOCNEl6wOj5MGJ-eA-7">
          <mxGeometry width="50" height="50" relative="1" as="geometry">
            <mxPoint x="414" y="70" as="sourcePoint" />
            <mxPoint x="408" y="204" as="targetPoint" />
          </mxGeometry>
        </mxCell>
      </root>
    </mxGraphModel>
  </diagram>
</mxfile>
